<svg version="1.1" xmlns="http://www.w3.org/2000/svg" viewBox="0 0 1029.4505301700178 622.4787130261624" width="2058.9010603400357" height="1244.9574260523248">
  <!-- svg-source:excalidraw -->
  
  <defs>
    <style class="style-fonts">
      @font-face {
        font-family: "Virgil";
        src: url("https://excalidraw.com/Virgil.woff2");
      }
      @font-face {
        font-family: "Cascadia";
        src: url("https://excalidraw.com/Cascadia.woff2");
      }
      @font-face {
        font-family: "Assistant";
        src: url("https://excalidraw.com/Assistant-Regular.woff2");
      }
    </style>
    
  </defs>
  <g stroke-linecap="round" transform="translate(10 10) rotate(0 196.46484375 120.294921875)"><path d="M32 0 C116.02 2.71, 196.51 1.52, 360.93 0 M32 0 C129.78 1.75, 227.55 1.8, 360.93 0 M360.93 0 C383.09 1.2, 392.31 10.39, 392.93 32 M360.93 0 C381.7 -1.83, 394.72 11.21, 392.93 32 M392.93 32 C391.06 69.39, 393.22 106.55, 392.93 208.59 M392.93 32 C392.23 93.1, 392.1 153.23, 392.93 208.59 M392.93 208.59 C393.06 230.65, 384.26 241.89, 360.93 240.59 M392.93 208.59 C392.18 231.76, 383.09 239.54, 360.93 240.59 M360.93 240.59 C249.84 240.18, 142.2 238.4, 32 240.59 M360.93 240.59 C275.66 240.89, 188.91 241.72, 32 240.59 M32 240.59 C8.73 241.98, 1.49 231.39, 0 208.59 M32 240.59 C9.83 239.84, 0.83 228.93, 0 208.59 M0 208.59 C-2.13 146.21, 0.65 89, 0 32 M0 208.59 C0.56 169.29, -0.61 128.75, 0 32 M0 32 C-1.96 10.97, 11.65 -1.21, 32 0 M0 32 C-1.9 8.87, 9.24 0.5, 32 0" stroke="#1e1e1e" stroke-width="2" fill="none"></path></g><g transform="translate(144.60546875 120.68359375) rotate(0 68.01995086669922 12.5)"><text x="0" y="0" font-family="Virgil, Segoe UI Emoji" font-size="20px" fill="#1e1e1e" text-anchor="start" style="white-space: pre;" direction="ltr" dominant-baseline="text-before-edge">Front (React)</text></g><g stroke-linecap="round" transform="translate(626.5208426700178 15.885668865344257) rotate(0 196.46484375 120.294921875)"><path d="M32 0 C126.85 1.86, 223.22 -0.02, 360.93 0 M32 0 C110.74 1.21, 190.67 1.03, 360.93 0 M360.93 0 C383.53 -1.79, 394.89 9.1, 392.93 32 M360.93 0 C381.75 -1.56, 393.23 9.34, 392.93 32 M392.93 32 C395.89 78.98, 395.15 127.11, 392.93 208.59 M392.93 32 C392.23 77.81, 392.99 122.79, 392.93 208.59 M392.93 208.59 C393.32 229.34, 380.9 239.25, 360.93 240.59 M392.93 208.59 C394.45 230.75, 381.21 240.11, 360.93 240.59 M360.93 240.59 C239.45 239.37, 121.02 240.75, 32 240.59 M360.93 240.59 C235.13 241.49, 110.14 240.39, 32 240.59 M32 240.59 C11.72 239.02, -1.36 230.16, 0 208.59 M32 240.59 C10.57 239.96, 0.6 230.43, 0 208.59 M0 208.59 C0.4 168.35, 2.15 127.59, 0 32 M0 208.59 C-1.7 167.79, -2.03 126.88, 0 32 M0 32 C0.84 10.72, 12.19 -0.83, 32 0 M0 32 C1.23 11.59, 9.17 -2.1, 32 0" stroke="#1e1e1e" stroke-width="2" fill="none"></path></g><g transform="translate(761.1263114200178 126.56926261534426) rotate(0 46.29997253417969 12.5)"><text x="0" y="0" font-family="Virgil, Segoe UI Emoji" font-size="20px" fill="#1e1e1e" text-anchor="start" style="white-space: pre;" direction="ltr" dominant-baseline="text-before-edge">API (GO)</text></g><g stroke-linecap="round" transform="translate(285.04339113286505 371.8888692761624) rotate(0 196.46484375 120.294921875)"><path d="M32 0 C162.41 -0.03, 292.63 0, 360.93 0 M32 0 C117.76 0.08, 204.16 -0.68, 360.93 0 M360.93 0 C382.7 -0.03, 391.86 11.03, 392.93 32 M360.93 0 C381.94 1.57, 393.37 9.86, 392.93 32 M392.93 32 C393.65 78.69, 390.96 123.06, 392.93 208.59 M392.93 32 C391.32 92.04, 392.43 152.17, 392.93 208.59 M392.93 208.59 C391.6 228.66, 380.64 242.01, 360.93 240.59 M392.93 208.59 C393.53 231.64, 381.13 239.84, 360.93 240.59 M360.93 240.59 C293.09 240.38, 224.17 241.05, 32 240.59 M360.93 240.59 C282.5 241.26, 203.14 241.98, 32 240.59 M32 240.59 C11.18 240.89, -0.77 228.9, 0 208.59 M32 240.59 C9.41 239.36, -1.93 231.15, 0 208.59 M0 208.59 C1.67 168.74, 0.87 130.27, 0 32 M0 208.59 C0.33 173.14, 0.99 135.9, 0 32 M0 32 C0.37 9.38, 9.46 -0.62, 32 0 M0 32 C-0.89 9.65, 10.55 2.1, 32 0" stroke="#1e1e1e" stroke-width="2" fill="none"></path></g><g transform="translate(419.64885988286505 482.57246302616227) rotate(0 54.429954528808594 12.5)"><text x="0" y="0" font-family="Virgil, Segoe UI Emoji" font-size="20px" fill="#1e1e1e" text-anchor="start" style="white-space: pre;" direction="ltr" dominant-baseline="text-before-edge">DB (sqlite)</text></g><g stroke-linecap="round"><g transform="translate(422.1768152078489 168.8047962632063) rotate(0 98.46725217780158 0.2226824709406401)"><path d="M-1.1 0.04 C31.49 0.19, 162.86 1.49, 195.8 1.39 M0.52 -0.99 C33.44 -1.19, 165.4 -0.44, 197.92 -0.23" stroke="#1e1e1e" stroke-width="2" fill="none"></path></g><g transform="translate(422.1768152078489 168.8047962632063) rotate(0 98.46725217780158 0.2226824709406401)"><path d="M174.38 8.18 C181.99 3.8, 191.1 2.39, 197.92 -0.23 M174.38 8.18 C178.71 5.38, 184.23 4.45, 197.92 -0.23" stroke="#1e1e1e" stroke-width="2" fill="none"></path></g><g transform="translate(422.1768152078489 168.8047962632063) rotate(0 98.46725217780158 0.2226824709406401)"><path d="M174.48 -8.92 C182.13 -7.79, 191.2 -3.7, 197.92 -0.23 M174.48 -8.92 C178.62 -7.96, 184.12 -5.14, 197.92 -0.23" stroke="#1e1e1e" stroke-width="2" fill="none"></path></g></g><mask></mask><g stroke-linecap="round"><g transform="translate(614.6185171827158 101.76513720947611) rotate(0 -99.4289468050506 1.7496479859620706)"><path d="M1.19 0.8 C-32.08 1.32, -165.89 3.59, -199.04 3.95 M0.35 0.18 C-33.14 0.26, -167.04 1.43, -200.08 2.07" stroke="#1e1e1e" stroke-width="2" fill="none"></path></g><g transform="translate(614.6185171827158 101.76513720947611) rotate(0 -99.4289468050506 1.7496479859620706)"><path d="M-176.7 -6.79 C-183.39 -3.79, -192.07 1.51, -200.08 2.07 M-176.7 -6.79 C-182.26 -4.16, -189.03 -1.28, -200.08 2.07" stroke="#1e1e1e" stroke-width="2" fill="none"></path></g><g transform="translate(614.6185171827158 101.76513720947611) rotate(0 -99.4289468050506 1.7496479859620706)"><path d="M-176.47 10.31 C-183.37 7.39, -192.11 6.77, -200.08 2.07 M-176.47 10.31 C-182.18 8.55, -189.01 7.04, -200.08 2.07" stroke="#1e1e1e" stroke-width="2" fill="none"></path></g></g><mask></mask><g stroke-linecap="round"><g transform="translate(710.7684034266626 274.6303582225293) rotate(0 -45.2094357211879 43.53075247871246)"><path d="M1.09 -0.1 C-13.99 14.45, -74.81 72.38, -90.01 86.77 M0.2 -1.2 C-15.04 13.57, -75.6 73.43, -90.75 88.15" stroke="#1e1e1e" stroke-width="2" fill="none"></path></g><g transform="translate(710.7684034266626 274.6303582225293) rotate(0 -45.2094357211879 43.53075247871246)"><path d="M-79.96 65.6 C-83.88 74.02, -87.86 81.51, -90.75 88.15 M-79.96 65.6 C-82.58 71.08, -85.68 76.37, -90.75 88.15" stroke="#1e1e1e" stroke-width="2" fill="none"></path></g><g transform="translate(710.7684034266626 274.6303582225293) rotate(0 -45.2094357211879 43.53075247871246)"><path d="M-67.99 77.8 C-75.91 82.2, -83.95 85.55, -90.75 88.15 M-67.99 77.8 C-73.41 80.43, -79.27 82.9, -90.75 88.15" stroke="#1e1e1e" stroke-width="2" fill="none"></path></g></g><mask></mask><g stroke-linecap="round"><g transform="translate(691.7449580520204 428.0854983619447) rotate(0 76.2797580677061 -76.22102862482072)"><path d="M-0.01 0.88 C25.11 -24.73, 126.19 -127.87, 151.62 -153.52 M-1.47 0.29 C23.93 -25.21, 128.29 -127.16, 153.84 -152.54" stroke="#1e1e1e" stroke-width="2" fill="none"></path></g><g transform="translate(691.7449580520204 428.0854983619447) rotate(0 76.2797580677061 -76.22102862482072)"><path d="M143.1 -129.97 C148.6 -140.06, 149.41 -146.96, 153.84 -152.54 M143.1 -129.97 C146.76 -135.37, 148.96 -140.78, 153.84 -152.54" stroke="#1e1e1e" stroke-width="2" fill="none"></path></g><g transform="translate(691.7449580520204 428.0854983619447) rotate(0 76.2797580677061 -76.22102862482072)"><path d="M131.1 -142.16 C141.15 -147.64, 146.49 -149.94, 153.84 -152.54 M131.1 -142.16 C137.71 -144.55, 142.94 -146.87, 153.84 -152.54" stroke="#1e1e1e" stroke-width="2" fill="none"></path></g></g><mask></mask></svg>